<svg class="basket_icon" xmlns="http://www.w3.org/2000/svg" viewBox="0 0 24.26 30"><defs></defs><title>basket</title><g id="Layer_2" data-name="Layer 2"><g id="Main_Page" data-name="Main Page"><path class="cls-1" d="M23.4,7.91H18.72v-4A3.9,3.9,0,0,0,14.82,0H9.44a3.91,3.91,0,0,0-3.9,3.9v4H.87A.87.87,0,0,0,0,8.77v0H0S.58,22.67.79,27.52A2.6,2.6,0,0,0,3.39,30H20.87a2.6,2.6,0,0,0,2.6-2.49l.79-18.7h0v0a.86.86,0,0,0-.86-.87ZM7.27,3.9A2.17,2.17,0,0,1,9.44,1.73h5.38A2.17,2.17,0,0,1,17,3.9v4H7.27Zm13.6,24.37H3.39a.86.86,0,0,1-.86-.83c-.18-4.1-.63-14.65-.76-17.8H5.54v5.74a.87.87,0,1,0,1.73,0V9.64H17v5.74a.87.87,0,1,0,1.73,0V9.64h3.77l-.75,17.8A.87.87,0,0,1,20.87,28.27Z"/></g></g></svg>