<svg class="user_icon" xmlns="http://www.w3.org/2000/svg" viewBox="0 0 31 31"><defs></defs><title>user</title><g id="Layer_2" data-name="Layer 2"><g id="Main_Page" data-name="Main Page"><path class="cls-1" d="M15.5,17a8.27,8.27,0,1,1,8.28-8.25A8.31,8.31,0,0,1,15.5,17Zm0-13.48a5.21,5.21,0,1,0,5.23,5.19A5.24,5.24,0,0,0,15.5,3.55Z"/><path class="cls-1" d="M15.5,21.07A10.9,10.9,0,0,1,9.13,19a1.53,1.53,0,1,1,1.79-2.48A8,8,0,0,0,15.5,18a7.67,7.67,0,0,0,4.58-1.49A1.53,1.53,0,1,1,21.87,19,10.9,10.9,0,0,1,15.5,21.07Z"/><path class="cls-1" d="M29,30.5H2A1.54,1.54,0,0,1,.5,29V27.83A11.82,11.82,0,0,1,9.7,16.26a1.41,1.41,0,0,1,1.22.27A8,8,0,0,0,15.5,18a7.67,7.67,0,0,0,4.58-1.49,1.56,1.56,0,0,1,1.22-.27,11.82,11.82,0,0,1,9.2,11.57V29A1.54,1.54,0,0,1,29,30.5ZM3.55,27.45h23.9a8.74,8.74,0,0,0-6.19-8,10.94,10.94,0,0,1-11.52,0A8.78,8.78,0,0,0,3.55,27.45Z"/></g></g></svg>