<svg class="icon_product" xmlns="http://www.w3.org/2000/svg" viewBox="0 0 28.82 32.82"><defs></defs><title>festive</title><g id="Layer_2" data-name="Layer 2"><g id="Main_Page" data-name="Main Page"><path class="cls-1" d="M4,9.85l.64-.8c.42.34,1,.7,1.44.52S7,8.3,7.16,6.77a1.25,1.25,0,0,1,1-1.23C9.35,5.29,11.34,6.69,11.49,7l-.9.5a.28.28,0,0,0,.09.11c-.38-.33-1.86-1.2-2.36-1,0,0-.11,0-.14.32-.2,2-.77,3.25-1.7,3.64a1.57,1.57,0,0,1-.65.13A3,3,0,0,1,4,9.85Z"/><path class="cls-1" d="M.12.83C.46.3,1.2.57,1.47.67A1.4,1.4,0,0,0,3.16.39,1.17,1.17,0,0,1,4.09,0,1.37,1.37,0,0,1,5,.77c.25.42,1,.48,1.6.53s1.37.11,1.62.68,0,1.09-.77,2.06l-.8-.63a3.31,3.31,0,0,0,.61-1,4.58,4.58,0,0,0-.74-.1,2.85,2.85,0,0,1-2.4-1l-.14-.22-.11.09a2.35,2.35,0,0,1-2.55.52,17.3,17.3,0,0,0,1.77,2.1l-.73.71C-.43,1.68,0,1.09.12.83Z"/><circle class="cls-1" cx="5.37" cy="5.03" r="0.49"/><path class="cls-1" d="M15.55,14.52,15.48,14l.07.5-.14-1c.19,0,4.5-.58,6.78,2.08l-.78.66C19.5,14,15.59,14.51,15.55,14.52Z"/><path class="cls-1" d="M13.45,21.05C8.26,18.8,8,15.25,8,14.56H9c0,.35.13,3.51,4.83,5.54a13.42,13.42,0,0,0,1.63.62l-.1-.17c-.31-.51-.61-1-.34-1.44a.82.82,0,0,1,.82-.35c1.94.14,4.19-.21,4.58-1.05l.93.44c-.69,1.46-3.48,1.73-5.24,1.66,0,.08.09.15.13.22.3.51.65,1.09.26,1.53a.76.76,0,0,1-.63.26A7.57,7.57,0,0,1,13.45,21.05Z"/><path class="cls-1" d="M12.76,24.85a8.49,8.49,0,0,1-3.4-1.19C6,21.48,2.54,18.33,3.93,8.47c-.06-.41-.5-2.8-2.2-2.8H1.54L.36,5.79l.73-.94a5.6,5.6,0,0,1,4.14-2A7,7,0,0,1,9.7,4.78a9,9,0,0,1,2.92,5.72c.38,1.93.59,3,2.77,3a8,8,0,0,0,.93-.06c.49-1.84,3.09-10,11.29-9.61l1.21.06-.88.82c-.91.86-2.16,2.42-2.08,3.2a.4.4,0,0,0,.23.35,1.59,1.59,0,0,1,.82,1,1.87,1.87,0,0,1-.58,1.44,2.54,2.54,0,0,0-.71,1.63c0,.14,0,.28,0,.44.09,2.24.27,6.89-2.6,9.52a11.3,11.3,0,0,1-5.75,2.47,2.67,2.67,0,0,1-.22,2.14,1,1,0,0,1-.81.38C16,27.3,15.1,27.3,12.76,24.85ZM17.24,14l-.07.35-.36.05a9.37,9.37,0,0,1-1.42.11c-3,0-3.39-1.86-3.78-3.82A8,8,0,0,0,9,5.56,6,6,0,0,0,5.23,3.9a4.31,4.31,0,0,0-2.58.9C4.59,5.48,4.94,8.28,5,8.41v.14c-1.33,9.31,1.73,12.15,5,14.25a7.75,7.75,0,0,0,3.15,1.06l.18,0,.13.14c2,2.14,2.75,2.25,2.87,2.25h0s.25-.28-.08-1.82l-.11-.54.55-.07a10.89,10.89,0,0,0,5.72-2.3c2.52-2.31,2.35-6.64,2.27-8.72,0-.16,0-.31,0-.44a3.48,3.48,0,0,1,.93-2.29c.16-.21.4-.53.38-.64s0-.12-.36-.33A1.45,1.45,0,0,1,24.84,8c-.1-1,.81-2.3,1.54-3.15C19.07,5.35,17.31,13.64,17.24,14Z"/><polygon class="cls-1" points="13.84 31.73 15.65 26.61 16.62 26.95 15.12 31.18 16.58 31.86 16.16 32.79 13.84 31.73"/><polygon class="cls-1" points="10.53 31.82 13.98 31.04 14.2 25.96 15.23 26.01 14.97 31.87 10.76 32.82 10.53 31.82"/></g></g></svg>