<svg class="icon_product" xmlns="http://www.w3.org/2000/svg" viewBox="0 0 31.14 29.07"><defs></defs><title>game</title><g id="Layer_2" data-name="Layer 2"><g id="Main_Page" data-name="Main Page"><path class="cls-1" d="M.25,15.66c.49,1.1,1.87,1.56,2.76,1.8a8.68,8.68,0,0,0,2.64,5.79,7.81,7.81,0,0,0,2.18,1.47c0,.74-.16,1.32-.55,1.44-.55.17-1.88.67-2.19,1.53a1,1,0,0,0,.12.94,1,1,0,0,0,1,.32H8.44l.66,0a4.41,4.41,0,0,0,.88-.07,5.14,5.14,0,0,0,2.85-2.5l.15-.29a17,17,0,0,1,3.83,1.14,2.27,2.27,0,0,0,.3,1.48c.2.24,1.49.33,3.13.33,3.15,0,7.57-.31,8-.38,2-.4,2.9-3.57,2.93-3.7a.48.48,0,0,0-.4-.61,4.58,4.58,0,0,0-1.14,0,11.14,11.14,0,0,0-1.3-6.05,12.53,12.53,0,0,0-6.13-5.73A12.85,12.85,0,0,0,15.71,12c-.82.07-1.66.13-2.53.13-.33,0-1.94-.31-2.1-1.18s.51-2,1.08-3.1c.19-.37.39-.73.55-1.08.73-1.53,1.22-4.73.21-6.5A.46.46,0,0,0,12.59,0a.49.49,0,0,0-.4.1A18.66,18.66,0,0,0,7.26,6.45l-.49.35a17.42,17.42,0,0,0,.12-2.66V3.78A3.19,3.19,0,0,1,8.08,1.27a.26.26,0,0,1,.2,0,1.17,1.17,0,0,1,.3.73.5.5,0,0,0,.54.43.49.49,0,0,0,.43-.54A2,2,0,0,0,8.76.4a1.14,1.14,0,0,0-1.07,0c-1.14.5-1.77,2.33-1.77,3.4v.37a9,9,0,0,1-.4,3.48,13,13,0,0,1-1.47.81,4.81,4.81,0,0,0-2.19,2.07c-.15.23-.31.48-.5.73C.47,12.46-.46,14.06.25,15.66Zm1.9-3.84c.2-.27.36-.53.53-.78A3.72,3.72,0,0,1,4.45,9.33,23.23,23.23,0,0,0,7.94,7.15.45.45,0,0,0,8.1,7a17.48,17.48,0,0,1,4.21-5.66,8.28,8.28,0,0,1-.48,5c-.16.33-.34.68-.53,1-.68,1.27-1.37,2.58-1.17,3.72.29,1.65,2.6,2,3,2,.9,0,1.77-.06,2.61-.13a12,12,0,0,1,6,.56,11.66,11.66,0,0,1,5.66,5.29,10,10,0,0,1,.84,7.44.49.49,0,0,0,.29.62.45.45,0,0,0,.16,0,.48.48,0,0,0,.46-.32,7.5,7.5,0,0,0,.28-1.16,3.08,3.08,0,0,1,.53-.08c-.34.91-1,2.23-2,2.41a73.82,73.82,0,0,1-8.67.36l.05-.39a.48.48,0,1,0-1-.11l-.06.48-.54,0A1.47,1.47,0,0,1,17.89,27a1.7,1.7,0,0,1,1.47-.77,8,8,0,0,1,4.57,1.06.5.5,0,0,0,.67-.15.49.49,0,0,0-.16-.67,9.34,9.34,0,0,0-3.83-1.22s-.05,0-.09-.06a1.9,1.9,0,0,1-1-2.47A5.26,5.26,0,0,1,22.1,20a3.12,3.12,0,0,1,2.42-.26.48.48,0,1,0,.31-.91,4.07,4.07,0,0,0-3.16.29,6.32,6.32,0,0,0-3.05,3.3,2.83,2.83,0,0,0,.47,2.88,2.63,2.63,0,0,0-2,1.08,20.11,20.11,0,0,0-3.79-1.16,13,13,0,0,0,.39-2c0-.18,0-.35.08-.53.13-.83.23-1.66.31-2.46a.5.5,0,0,0-.44-.53.48.48,0,0,0-.53.44c-.07.78-.17,1.59-.3,2.4,0,.18,0,.36-.08.55a8,8,0,0,1-.78,2.9A4.31,4.31,0,0,1,9.8,28a4.81,4.81,0,0,1-1.32,0H7.25q-.44,0-.87,0H6a2.79,2.79,0,0,1,1.55-.9c1.65-.52,1.26-3.22,1-4.35a.48.48,0,1,0-.94.2c0,.22.08.44.11.66A7.4,7.4,0,0,1,4,17.69,11.62,11.62,0,0,0,6.17,18h.14c2.51,0,3.84-1.78,4.72-3.34a.49.49,0,0,0-.85-.47C9,16.23,7.85,17.07,6.2,17a12.13,12.13,0,0,1-2.62-.41c-.67-.16-2.08-.51-2.44-1.33C.63,14.12,1.41,12.82,2.15,11.82Z"/><circle class="cls-1" cx="5.84" cy="11.5" r="0.73"/><path class="cls-1" d="M9.72,4.42A10.51,10.51,0,0,0,9,9.34a.48.48,0,0,0,.48.44h0A.47.47,0,0,0,10,9.26a9.49,9.49,0,0,1,.67-4.46.49.49,0,0,0-.9-.38Z"/></g></g></svg>