<svg class="icon_product" xmlns="http://www.w3.org/2000/svg" viewBox="0 0 35.62 29.79"><defs></defs><title>lamb</title><g id="Layer_2" data-name="Layer 2"><g id="Main_Page" data-name="Main Page"><path class="cls-1" d="M.05,7.1A1.83,1.83,0,0,0,2,8.41,5.1,5.1,0,0,0,3,8.31,1.83,1.83,0,0,0,3,8.7c.18.58.34,1.18.5,1.76s.35,1.24.54,1.86a14.78,14.78,0,0,1,.39,1.62,9.23,9.23,0,0,0,1,3.15A6.67,6.67,0,0,0,9.77,20c.13.26.26.52.4.75,1.23,2,1,4.75.87,6.08,0,.37-.08.75-.14,1.09a3.35,3.35,0,0,1-.16.41,2.14,2.14,0,0,0-.27.9.49.49,0,0,0,.42.48,10.86,10.86,0,0,0,1.36.08,6.27,6.27,0,0,0,1.38-.13l-.23-.95a7,7,0,0,1-1.81.09l0-.06a2.69,2.69,0,0,0,.24-.65c.06-.37.11-.78.15-1.18.12-1.43.39-4.41-1-6.67a18.46,18.46,0,0,1-1.76-5.58l-1,.14a22.83,22.83,0,0,0,1,4.07,5.75,5.75,0,0,1-3-2.29,8.54,8.54,0,0,1-.92-2.84A14.18,14.18,0,0,0,5,12c-.19-.61-.36-1.23-.53-1.83S4.15,9,4,8.41a1.08,1.08,0,0,1,0-.87A1.39,1.39,0,0,1,4.81,7L4.57,6a2.44,2.44,0,0,0-1.42,1,1.6,1.6,0,0,0-.1.23c-1.59.35-1.94,0-2.07-.45S1.74,5.05,2.7,4.06a1.79,1.79,0,0,0,.35.09,2.71,2.71,0,0,0,1.3-.29,1.79,1.79,0,0,1,.85-.22c.3,0,.73.23.7.62A.84.84,0,0,1,5.3,5l.22,1a1.79,1.79,0,0,0,1.1-.84L7,5.2a4.15,4.15,0,0,0,1.43.3h0A.48.48,0,0,0,8.89,5a.49.49,0,0,0-.48-.49h0a3.25,3.25,0,0,1-1.12-.24l-.39-.12A1.62,1.62,0,0,0,5.31,2.68,2.6,2.6,0,0,0,4,3a1.87,1.87,0,0,1-.83.22c-.38,0-.36-.74-.36-.75,0-1,1.62-1.38,2.55-1.44,2-.13,3.7.69,5.5,2.65a10.16,10.16,0,0,0,6.84,3c1.55.1,3.13.07,4.65,0a43.64,43.64,0,0,1,5.48.12,8.77,8.77,0,0,1,5.65,2.75c2,2.59,1.28,6.43-.42,8.89-.19.29-.13.42.4,1.45.09.17.16.31.18.36A3.63,3.63,0,0,1,34,21.7a11.51,11.51,0,0,1-.21,1.58,14.89,14.89,0,0,0-.25,2c0,1.2,0,2.63,0,2.69l1-.05s-.07-1.46,0-2.61a13.6,13.6,0,0,1,.23-1.84A12.77,12.77,0,0,0,35,21.73a4.66,4.66,0,0,0-.45-1.84l-.22-.44c-.09-.16-.24-.46-.33-.65,1.8-2.75,2.46-7,.25-9.83A9.6,9.6,0,0,0,27.9,5.84a43.79,43.79,0,0,0-5.6-.12c-1.5,0-3.05,0-4.56,0A9.23,9.23,0,0,1,11.55,3c-2-2.21-4-3.13-6.28-3C3.7.12,1.86.8,1.81,2.4a2,2,0,0,0,.19,1C1.37,4-.3,5.89.05,7.1Z"/><path class="cls-1" d="M15.65,21.38a22.46,22.46,0,0,0,5.11.61,15.22,15.22,0,0,0,4.77-.71l-.31-.92a18.26,18.26,0,0,1-8.72.21A6,6,0,0,0,17.79,17l0-.2-1-.11,0,.21a4.58,4.58,0,0,1-1.51,3.45c-2.77,2.29-2.68,7.48-2.67,7.7l1,0C13.61,28,13.54,23.5,15.65,21.38Z"/><path class="cls-1" d="M27.33,21.15c2.29,1.06,3.84,2.26,4.36,3.39a7,7,0,0,1,.16,4.4.47.47,0,0,0,.07.43.48.48,0,0,0,.4.2h2v-1H32.94a8.09,8.09,0,0,0-.36-4.47c-.63-1.36-2.3-2.7-4.84-3.86-2.28-1.05-1.85-4.05-1.83-4.18l-1-.15C24.93,16.1,24.38,19.79,27.33,21.15Z"/><circle class="cls-1" cx="4.4" cy="4.89" r="0.56"/></g></g></svg>