<svg class="icon_product" xmlns="http://www.w3.org/2000/svg" viewBox="0 0 27.33 32.82"><defs></defs><title>other</title><g id="Layer_2" data-name="Layer 2"><g id="Main_Page" data-name="Main Page"><path class="cls-1" d="M26,4.1H1.36V0H26ZM2.73,2.74H24.61V1.37H2.73Z"/><path class="cls-1" d="M26,32.82H1.36v-4.1H26ZM2.73,31.45H24.61V30.09H2.73Z"/><path class="cls-1" d="M25.94,30.09H1.39l-.11-.55a67.85,67.85,0,0,1,0-26.26l.11-.55H25.94l.11.55a67.85,67.85,0,0,1,0,26.26ZM2.52,28.73h22.3a66.66,66.66,0,0,0,0-24.63H2.52A66.23,66.23,0,0,0,2.52,28.73Z"/><path class="cls-1" d="M13.67,19.83c-3.4,0-6.16-3.07-6.16-6.84s2.76-6.84,6.16-6.84S19.82,9.22,19.82,13,17.06,19.83,13.67,19.83Zm0-12.31C11,7.52,8.88,10,8.88,13s2.15,5.47,4.79,5.47S18.45,16,18.45,13,16.31,7.52,13.67,7.52Z"/><rect class="cls-1" x="6.83" y="21.88" width="13.68" height="1.37"/><rect class="cls-1" x="9.56" y="25.3" width="8.21" height="1.37"/></g></g></svg>