<svg class="icon_product" xmlns="http://www.w3.org/2000/svg" viewBox="0 0 34.36 31.49"><defs></defs><title>pies</title><g id="Layer_2" data-name="Layer 2"><g id="Main_Page" data-name="Main Page"><path class="cls-1" d="M7.87,18.61a.73.73,0,0,1-.42-.14.71.71,0,0,1-.15-1,4.71,4.71,0,0,1,3.41-1.72.67.67,0,0,1,.74.68.72.72,0,0,1-.68.75,3.3,3.3,0,0,0-2.32,1.14A.72.72,0,0,1,7.87,18.61Z"/><path class="cls-1" d="M13.6,20h0a.72.72,0,0,1-.72-.72,6.4,6.4,0,0,1,1.71-3.43A.72.72,0,0,1,15.47,17a5.34,5.34,0,0,0-1.15,2.29A.73.73,0,0,1,13.6,20Z"/><path class="cls-1" d="M17.18,31.49c-11.64,0-12.77-2.87-12.87-3.44l-1.18-5.9A2.37,2.37,0,0,1,1,22.77c-.64-.24-1-.92-1-2C0,17,10.28,11.45,17.18,11.45S34.36,17,34.36,20.76a1.66,1.66,0,0,1-.86,1.7A2.55,2.55,0,0,1,31.26,22l-1.21,6.05C29.94,28.62,28.81,31.49,17.18,31.49ZM5.71,27.77s1.09,2.29,11.47,2.29c10.21,0,11.46-2.25,11.46-2.28l1.44-7.16a.72.72,0,0,1,.47-.54.69.69,0,0,1,.7.14,3.65,3.65,0,0,0,1.65.94s0-.15,0-.4c0-2.41-9.16-7.88-15.75-7.88S1.43,18.35,1.43,20.76a1.39,1.39,0,0,0,.11.72,5.62,5.62,0,0,0,1.51-1.21.69.69,0,0,1,.72-.2.7.7,0,0,1,.51.54l1.43,7.16Z"/><path class="cls-1" d="M20.7,24.39a5.65,5.65,0,0,1-3.52-1.22,5.69,5.69,0,0,1-4.54,1.13,5.31,5.31,0,0,1-3.32-2c-1.09,1.64-2.14,2-3,2C5,24.26,3.78,23.1,2.92,21a.72.72,0,0,1,1.32-.55c.6,1.45,1.43,2.37,2.17,2.39h0c.72,0,1.51-.81,2.24-2.3a.68.68,0,0,1,.66-.4.72.72,0,0,1,.64.44,3.79,3.79,0,0,0,2.92,2.28,4.16,4.16,0,0,0,3.77-1.19.74.74,0,0,1,1.05,0,4.14,4.14,0,0,0,3.76,1.19,3.78,3.78,0,0,0,2.92-2.28.72.72,0,0,1,.64-.44.75.75,0,0,1,.67.4c.73,1.51,1.47,2.35,2.26,2.3s1.56-.94,2.16-2.39a.71.71,0,0,1,.93-.38.71.71,0,0,1,.39.93c-.86,2.07-2.08,3.23-3.44,3.27h-.07c-.77,0-1.83-.39-2.89-2a5.31,5.31,0,0,1-3.32,2A5.86,5.86,0,0,1,20.7,24.39Z"/><path class="cls-1" d="M26.48,18.61a.7.7,0,0,1-.57-.29,3.3,3.3,0,0,0-2.32-1.14.72.72,0,0,1-.68-.75.68.68,0,0,1,.74-.68,4.71,4.71,0,0,1,3.41,1.72.72.72,0,0,1-.15,1A.76.76,0,0,1,26.48,18.61Z"/><path class="cls-1" d="M20.76,20a.72.72,0,0,1-.72-.72A5.45,5.45,0,0,0,18.89,17a.72.72,0,0,1-.13-1,.71.71,0,0,1,1-.14,6.33,6.33,0,0,1,1.71,3.43A.71.71,0,0,1,20.76,20Z"/><path class="cls-1" d="M11.48,10A.72.72,0,0,1,11,8.8c.87-.88.52-1.94-.14-3.6s-1.38-3.47.14-5a.71.71,0,1,1,1,1c-.81.81-.46,1.84.18,3.45S13.57,8.22,12,9.81A.7.7,0,0,1,11.48,10Z"/><path class="cls-1" d="M17.17,10a.72.72,0,0,1-.51-1.22c.88-.88.52-1.94-.14-3.6s-1.38-3.47.14-5a.71.71,0,0,1,1,1c-.81.81-.46,1.84.18,3.45s1.41,3.55-.18,5.14A.7.7,0,0,1,17.17,10Z"/><path class="cls-1" d="M22.89,10a.7.7,0,0,1-.5-.21.71.71,0,0,1,0-1c.87-.88.51-1.94-.15-3.6s-1.37-3.47.15-5a.71.71,0,0,1,1,1c-.81.81-.46,1.84.17,3.45S25,8.22,23.4,9.81A.71.71,0,0,1,22.89,10Z"/></g></g></svg>