<svg class="icon_product" xmlns="http://www.w3.org/2000/svg" viewBox="0 0 46.67 23.7"><defs></defs><title>pork</title><g id="Layer_2" data-name="Layer 2"><g id="Main_Page" data-name="Main Page"><path class="cls-1" d="M0,12.31c0,.5.11,2.14,1.12,2.4a5.4,5.4,0,0,0,1,.13A4,4,0,0,1,3,15l.3.09a11.49,11.49,0,0,0,4,.37,8.69,8.69,0,0,0,2.46-.25.31.31,0,0,0,.13.06,14.32,14.32,0,0,0,2.95.46h.3a10.5,10.5,0,0,1,.43,1.61c.05.26.11.52.17.78a5.35,5.35,0,0,1,.21,2,4.54,4.54,0,0,1-1.51,2.54h0a.7.7,0,0,0-.06.09l-.06.08s0,.05,0,.08a.51.51,0,0,0,0,.13h0s0,.05,0,.07a.5.5,0,0,0,0,.12l.06.09,0,.08a0,0,0,0,1,0,0,.71.71,0,0,0,.14.1l0,0a.54.54,0,0,0,.22.05h1.77a.55.55,0,0,0,0-1.1h-.53a5.11,5.11,0,0,0,1-2.22,6,6,0,0,0-.23-2.4c-.05-.25-.11-.49-.16-.74a10.43,10.43,0,0,0-.88-2.8c-.27-.56-.55-1.12-.84-1.67a.55.55,0,1,0-1,.51c.26.49.5,1,.74,1.46a9.7,9.7,0,0,1-1.39-.17l.11-.07a.54.54,0,0,0,.18-.75.55.55,0,0,0-.75-.19l-.26.16c-.79.49-1.23.76-3.28.76A10.37,10.37,0,0,1,3.65,14l-.34-.1a5.44,5.44,0,0,0-1.13-.17,4.18,4.18,0,0,1-.79-.11,2,2,0,0,1-.27-1,10.7,10.7,0,0,0,1.95-1.43c.25-.21.57-.48.66-.53.36-.2.68-.85.95-1.92a3.26,3.26,0,0,0,.63.28.45.45,0,0,0,.16,0A.55.55,0,0,0,5.63,8c-1.15-.34-1.72-1.78-2-2.71A4,4,0,0,1,6.31,7.72.56.56,0,0,0,7,8.09a.55.55,0,0,0,.37-.68,4,4,0,0,0-.9-1.58c1.47-.5,12.25-4.13,18.92-4.47l1.28-.06c2.26-.12,4.6-.24,6.88-.19s4.87.1,6.63,1.54S42.72,6.93,42.71,9c0,.94-.18,4.05-2.14,4.76a.53.53,0,0,0-.35.58c.12.94.31,2.47.31,2.85a4.31,4.31,0,0,1-.3,1.27,6,6,0,0,0-.35,1.32,13.44,13.44,0,0,1-.6,3.16.55.55,0,0,0,.34.69.57.57,0,0,0,.18,0,.55.55,0,0,0,.52-.37A15.61,15.61,0,0,0,41,19.85a5.45,5.45,0,0,1,.29-1.08,5,5,0,0,0,.36-1.63c0-.44-.17-1.86-.27-2.58C43.59,13.39,43.79,10,43.8,9a11,11,0,0,0-1-4.59l.6-.2a3.81,3.81,0,0,0,.63.56,2.19,2.19,0,0,0,1.3.42,2.44,2.44,0,0,0,1-.24.55.55,0,1,0-.47-1,1.24,1.24,0,0,1-1.24-.07,1.93,1.93,0,0,1-.21-.17A2.46,2.46,0,0,0,45.18,3a1.31,1.31,0,0,0,.19-1.05,1.73,1.73,0,0,0-1-1.33A1.56,1.56,0,0,0,42.77,1a1.5,1.5,0,0,0-.14,2l0,.07,0,.1-.49.14a6.27,6.27,0,0,0-1.37-1.57c-2-1.68-5-1.75-7.29-1.8s-4.69.07-7,.19L25.32.27C18,.64,6.42,4.69,5.93,4.86a.55.55,0,0,0-.29.25A7,7,0,0,0,3,4a.54.54,0,0,0-.47.14.52.52,0,0,0-.16.47A7.53,7.53,0,0,0,3.75,8h0a6.93,6.93,0,0,1-.59,1.8,6.37,6.37,0,0,0-.79.63A9.23,9.23,0,0,1,.52,11.76.54.54,0,0,0,0,12.31ZM43.47,1.87a.83.83,0,0,1,.45-.23H44c.1,0,.25.22.33.54a.27.27,0,0,1-.05.21,1.44,1.44,0,0,1-.52.42c0-.06-.07-.12-.1-.19l0-.08C43.31,2,43.36,2,43.47,1.87Z"/><path class="cls-1" d="M15.65,22.92a.55.55,0,0,0,.25.73.52.52,0,0,0,.24.05.53.53,0,0,0,.49-.31,10.69,10.69,0,0,0,.73-2.17,16.71,16.71,0,0,1,1.33-3.82,5.52,5.52,0,0,0,.57-1.14,48.72,48.72,0,0,0,8.15.73,26,26,0,0,0,7.9-1.07c.54.73,1.08,1.52,1.61,2.38.81,1.32.17,2.68-.51,4.13l-.17.36a.53.53,0,0,0,0,.52.54.54,0,0,0,.46.26h1.55a.55.55,0,0,0,0-1.1H37.6c.67-1.46,1.27-3.08.25-4.74a28.83,28.83,0,0,0-3.31-4.47.54.54,0,0,0-.8.74c.28.31.57.65.86,1-5.56,1.66-13,.55-15,.2a9.84,9.84,0,0,0,.09-2.9.54.54,0,0,0-.6-.49.55.55,0,0,0-.49.6,6.57,6.57,0,0,1-.78,4.38A17.42,17.42,0,0,0,16.29,21,10,10,0,0,1,15.65,22.92Z"/><circle class="cls-1" cx="5.51" cy="10.24" r="0.63"/></g></g></svg>