<svg class="icon_product" xmlns="http://www.w3.org/2000/svg" viewBox="0 0 36.92 24.61"><defs></defs><title>puddings</title><g id="Layer_2" data-name="Layer 2"><g id="Main_Page" data-name="Main Page"><path class="cls-1" d="M20.77,24.61A12.31,12.31,0,0,0,20.77,0H7.69C3.46,0,0,5.54,0,12.31s3.46,12.3,7.69,12.3Zm-5.39-12.3c0-4.62-1.54-8.77-4.07-10.77h9.46a10.77,10.77,0,0,1,0,21.53H11.31c2.53-1.92,4.07-6.15,4.07-10.76Zm-1.54,0c0,5.92-2.76,10.76-6.15,10.76S1.54,18.23,1.54,12.31,4.31,1.54,7.69,1.54s6.15,4.84,6.15,10.77ZM10.77,7.69c0-1.69-1-3.08-2.31-3.08S6.15,6,6.15,7.69s1,3.08,2.31,3.08,2.31-1.39,2.31-3.08ZM36.15,10a.73.73,0,0,0-.77.77.73.73,0,0,1-.77.77.77.77,0,0,0,0,1.54.72.72,0,0,1,.77.76.77.77,0,1,0,1.54,0,2.63,2.63,0,0,0-.54-1.53,2.49,2.49,0,0,0,.54-1.54.73.73,0,0,0-.77-.77ZM11.54,15.38c0-.84-.54-1.54-1.16-1.54s-1.15.7-1.15,1.54.54,1.54,1.15,1.54,1.16-.69,1.16-1.54ZM5.38,11.54c0-.85-.53-1.54-1.15-1.54s-1.15.69-1.15,1.54.53,1.54,1.15,1.54,1.15-.7,1.15-1.54ZM9.23,7.69c0,.85-.31,1.54-.77,1.54s-.77-.69-.77-1.54S8,6.15,8.46,6.15s.77.7.77,1.54ZM8.46,20a.73.73,0,0,0-.77-.77.77.77,0,1,0,0,1.54A.73.73,0,0,0,8.46,20ZM4.61,16.15a.77.77,0,0,0,0,1.54.77.77,0,0,0,0-1.54Z"/></g></g></svg>